<svg width="456" height="448" viewBox="-50 -50 590 550" fill="none" xmlns="http://www.w3.org/2000/svg">
<rect width="456" height="448" rx="48" fill="black"/>
<path d="M199.344 338.989C199.342 333.439 203.51 330.428 214.721 325.555C222.674 322.099 233.671 316.674 240.333 313.332C242.959 312.014 244.273 311.356 245.222 311.942C246.172 312.528 246.172 313.993 246.172 316.924V398.851C246.172 400.737 246.172 401.68 245.586 402.265C245 402.851 244.058 402.851 242.172 402.851H203.344C201.458 402.851 200.515 402.851 199.93 402.265C199.344 401.68 199.344 400.74 199.344 398.861C199.344 385.613 199.345 343.654 199.344 338.989Z" fill="#F0F0F0"/>
<path d="M272.123 306.948C272.121 301.398 276.289 298.387 287.5 293.514C295.453 290.058 306.451 284.633 313.112 281.291C315.739 279.973 317.052 279.315 318.002 279.901C318.951 280.487 318.951 281.952 318.951 284.883V398.853C318.951 400.738 318.951 401.681 318.366 402.267C317.78 402.853 316.837 402.853 314.951 402.853H276.123C274.237 402.853 273.295 402.853 272.709 402.267C272.123 401.681 272.123 400.741 272.123 398.862C272.123 381.33 272.125 311.795 272.123 306.948Z" fill="#F0F0F0"/>
<path d="M344.902 272.805C344.901 267.255 349.068 264.245 360.28 259.372C368.232 255.915 379.23 250.49 385.891 247.149C388.518 245.831 389.831 245.172 390.781 245.758C391.731 246.344 391.731 247.809 391.731 250.74V398.852C391.731 400.738 391.731 401.681 391.145 402.266C390.559 402.852 389.616 402.852 387.731 402.852H348.902C347.017 402.852 346.074 402.852 345.488 402.266C344.902 401.681 344.902 400.761 344.902 398.921C344.903 377.719 344.904 277.765 344.902 272.805Z" fill="#F0F0F0"/>
<path d="M117.839 201.809C117.838 196.259 122.005 193.249 133.217 188.376C141.902 184.601 157.787 178.048 166.163 174.608C168.651 173.587 169.895 173.076 170.781 173.67C171.667 174.264 171.667 175.612 171.667 178.307V255.571C171.667 258.358 171.667 259.751 172.581 260.342C173.495 260.933 174.765 260.362 177.307 259.22L311.515 198.906C311.515 198.906 352.108 175.341 329.909 128.902C310.663 88.64 264.557 103.741 264.557 103.741L70.6592 192.136C68.1106 193.298 66.8363 193.879 65.9182 193.288C65 192.698 65 191.297 65 188.496V139.021C65 137.768 65 137.142 65.3194 136.646C65.6388 136.151 66.1896 135.902 67.2911 135.404C87.8625 126.097 240.276 57.1333 251.222 51.9232C262.962 46.335 314.03 33.0591 357.075 70.3767C373.94 84.9981 396.883 121.855 390.166 168.053C382.306 222.103 334.994 244.606 334.994 244.606L173.995 318.693C172.865 319.213 172.299 319.473 171.983 319.967C171.667 320.46 171.667 321.082 171.667 322.327V398.852C171.667 400.737 171.667 401.68 171.082 402.266C170.496 402.852 169.553 402.852 167.667 402.852H121.839C119.954 402.852 119.011 402.852 118.425 402.266C117.839 401.68 117.839 400.772 117.839 398.956C117.84 371.406 117.841 206.894 117.839 201.809Z" fill="#F0F0F0"/>
</svg>
