<svg width="319" height="128" viewBox="0 0 319 128" fill="none" xmlns="http://www.w3.org/2000/svg">
<path d="M93.0748 85.6179C89.8754 85.6179 87.1086 84.9382 84.7743 83.5788C82.4538 82.2057 80.6619 80.2971 79.3986 77.853C78.1354 75.3951 77.5037 72.5459 77.5037 69.3054C77.5037 66.0374 78.1354 63.1813 79.3986 60.7372C80.6619 58.2794 82.4538 56.3707 84.7743 55.0114C87.1086 53.6383 89.8754 52.9517 93.0748 52.9517C96.2741 52.9517 99.034 53.6383 101.355 55.0114C103.689 56.3707 105.488 58.2794 106.751 60.7372C108.014 63.1813 108.646 66.0374 108.646 69.3054C108.646 72.5459 108.014 75.3951 106.751 77.853C105.488 80.2971 103.689 82.2057 101.355 83.5788C99.034 84.9382 96.2741 85.6179 93.0748 85.6179ZM93.1159 78.821C94.5714 78.821 95.7866 78.4091 96.7615 77.5852C97.7364 76.7476 98.4711 75.608 98.9654 74.1662C99.4734 72.7244 99.7275 71.0836 99.7275 69.2436C99.7275 67.4036 99.4734 65.7628 98.9654 64.321C98.4711 62.8793 97.7364 61.7396 96.7615 60.902C95.7866 60.0644 94.5714 59.6456 93.1159 59.6456C91.6467 59.6456 90.4109 60.0644 89.4086 60.902C88.4199 61.7396 87.6716 62.8793 87.1635 64.321C86.6692 65.7628 86.4221 67.4036 86.4221 69.2436C86.4221 71.0836 86.6692 72.7244 87.1635 74.1662C87.6716 75.608 88.4199 76.7476 89.4086 77.5852C90.4109 78.4091 91.6467 78.821 93.1159 78.821ZM140.673 62.3849L132.641 62.8793C132.503 62.1927 132.208 61.5748 131.755 61.0256C131.302 60.4626 130.705 60.0163 129.963 59.6868C129.235 59.3435 128.364 59.1719 127.347 59.1719C125.988 59.1719 124.842 59.4602 123.908 60.0369C122.974 60.5999 122.507 61.3551 122.507 62.3026C122.507 63.0578 122.809 63.6963 123.414 64.218C124.018 64.7398 125.054 65.1586 126.524 65.4744L132.249 66.6278C135.325 67.2595 137.618 68.2756 139.129 69.6761C140.639 71.0767 141.394 72.9167 141.394 75.196C141.394 77.2694 140.783 79.0888 139.561 80.6541C138.353 82.2195 136.691 83.4415 134.577 84.3203C132.476 85.1854 130.052 85.6179 127.306 85.6179C123.118 85.6179 119.782 84.746 117.296 83.0021C114.825 81.2446 113.376 78.8554 112.95 75.8345L121.58 75.3814C121.841 76.6584 122.473 77.6333 123.475 78.3061C124.478 78.9652 125.762 79.2947 127.327 79.2947C128.865 79.2947 130.101 78.9995 131.034 78.4091C131.982 77.8049 132.462 77.0291 132.476 76.0817C132.462 75.2853 132.126 74.633 131.467 74.125C130.808 73.6032 129.792 73.205 128.419 72.9304L122.94 71.8388C119.85 71.2209 117.55 70.1499 116.04 68.6257C114.543 67.1016 113.795 65.1586 113.795 62.7969C113.795 60.7647 114.344 59.014 115.443 57.5447C116.555 56.0755 118.113 54.9427 120.118 54.1463C122.137 53.3499 124.498 52.9517 127.203 52.9517C131.199 52.9517 134.343 53.7962 136.637 55.4851C138.943 57.174 140.289 59.474 140.673 62.3849ZM155.941 85.5973C153.922 85.5973 152.123 85.2472 150.544 84.5469C148.965 83.8329 147.716 82.7824 146.796 81.3956C145.89 79.995 145.436 78.2512 145.436 76.1641C145.436 74.4065 145.759 72.9304 146.404 71.7358C147.05 70.5412 147.929 69.58 149.041 68.8523C150.153 68.1245 151.416 67.5753 152.831 67.2045C154.259 66.8338 155.755 66.5729 157.321 66.4219C159.161 66.2296 160.644 66.0511 161.77 65.8864C162.895 65.7079 163.712 65.447 164.221 65.1037C164.729 64.7604 164.983 64.2524 164.983 63.5795V63.456C164.983 62.1515 164.571 61.1423 163.747 60.4283C162.937 59.7143 161.783 59.3572 160.287 59.3572C158.708 59.3572 157.451 59.7074 156.517 60.4077C155.584 61.0942 154.966 61.9593 154.664 63.0028L146.549 62.3438C146.961 60.4214 147.771 58.7599 148.979 57.3594C150.187 55.9451 151.746 54.8603 153.654 54.1051C155.577 53.3362 157.801 52.9517 160.328 52.9517C162.085 52.9517 163.767 53.1577 165.374 53.5696C166.994 53.9815 168.429 54.62 169.679 55.4851C170.942 56.3501 171.937 57.4624 172.665 58.8217C173.393 60.1674 173.757 61.7808 173.757 63.6619V85H165.436V80.6129H165.189C164.681 81.6016 164.001 82.4735 163.15 83.2287C162.298 83.9702 161.275 84.5537 160.081 84.9794C158.886 85.3913 157.506 85.5973 155.941 85.5973ZM158.453 79.5419C159.744 79.5419 160.884 79.2879 161.873 78.7798C162.861 78.258 163.637 77.5578 164.2 76.679C164.763 75.8002 165.044 74.8047 165.044 73.6925V70.3352C164.77 70.5137 164.392 70.6785 163.912 70.8295C163.445 70.9669 162.916 71.0973 162.326 71.2209C161.735 71.3307 161.145 71.4337 160.554 71.5298C159.964 71.6122 159.428 71.6877 158.948 71.7564C157.918 71.9074 157.019 72.1477 156.25 72.4773C155.481 72.8068 154.883 73.2531 154.458 73.8161C154.032 74.3653 153.819 75.0518 153.819 75.8757C153.819 77.0703 154.252 77.9834 155.117 78.6151C155.996 79.233 157.108 79.5419 158.453 79.5419ZM192.222 85.5149C189.819 85.5149 187.642 84.897 185.692 83.6612C183.756 82.4117 182.219 80.5786 181.079 78.1619C179.953 75.7315 179.39 72.7519 179.39 69.223C179.39 65.598 179.973 62.584 181.141 60.1811C182.308 57.7644 183.859 55.9588 185.795 54.7642C187.745 53.5559 189.88 52.9517 192.201 52.9517C193.972 52.9517 195.448 53.2538 196.629 53.858C197.824 54.4484 198.785 55.1899 199.513 56.0824C200.254 56.9612 200.817 57.8262 201.202 58.6776H201.469V42.8182H210.223V85H201.572V79.9332H201.202C200.79 80.812 200.206 81.6839 199.451 82.549C198.71 83.4003 197.741 84.1075 196.547 84.6705C195.366 85.2334 193.924 85.5149 192.222 85.5149ZM195.002 78.5327C196.416 78.5327 197.611 78.1482 198.586 77.3793C199.575 76.5966 200.33 75.505 200.852 74.1044C201.387 72.7038 201.655 71.063 201.655 69.1818C201.655 67.3007 201.394 65.6667 200.872 64.2798C200.35 62.893 199.595 61.822 198.607 61.0668C197.618 60.3116 196.416 59.9339 195.002 59.9339C193.56 59.9339 192.345 60.3253 191.357 61.108C190.368 61.8906 189.62 62.9754 189.112 64.3622C188.603 65.7491 188.349 67.3556 188.349 69.1818C188.349 71.0218 188.603 72.6489 189.112 74.0632C189.633 75.4638 190.382 76.5623 191.357 77.3587C192.345 78.1413 193.56 78.5327 195.002 78.5327ZM217.437 85V53.3636H225.799V58.9453H226.17C226.829 57.0916 227.927 55.6293 229.465 54.5582C231.003 53.4872 232.843 52.9517 234.985 52.9517C237.155 52.9517 239.002 53.4941 240.526 54.5788C242.05 55.6499 243.066 57.1053 243.574 58.9453H243.904C244.549 57.1328 245.716 55.6842 247.405 54.5994C249.108 53.5009 251.119 52.9517 253.44 52.9517C256.392 52.9517 258.788 53.8923 260.628 55.7734C262.482 57.6409 263.409 60.291 263.409 63.7237V85H254.655V65.4538C254.655 63.6963 254.188 62.3781 253.254 61.4993C252.321 60.6205 251.154 60.1811 249.753 60.1811C248.16 60.1811 246.918 60.6892 246.025 61.7053C245.133 62.7076 244.686 64.0327 244.686 65.6804V85H236.18V65.2685C236.18 63.7169 235.734 62.4811 234.841 61.5611C233.962 60.6411 232.802 60.1811 231.36 60.1811C230.385 60.1811 229.507 60.4283 228.724 60.9226C227.955 61.4032 227.344 62.0829 226.891 62.9616C226.438 63.8267 226.211 64.8428 226.211 66.0099V85H217.437ZM270.339 85V53.3636H279.113V85H270.339ZM274.747 49.2855C273.443 49.2855 272.323 48.853 271.39 47.9879C270.47 47.1091 270.01 46.0587 270.01 44.8366C270.01 43.6283 270.47 42.5916 271.39 41.7266C272.323 40.8478 273.443 40.4084 274.747 40.4084C276.051 40.4084 277.164 40.8478 278.084 41.7266C279.017 42.5916 279.484 43.6283 279.484 44.8366C279.484 46.0587 279.017 47.1091 278.084 47.9879C277.164 48.853 276.051 49.2855 274.747 49.2855ZM294.916 66.7102V85H286.142V53.3636H294.504V58.9453H294.875C295.575 57.1053 296.749 55.6499 298.397 54.5788C300.045 53.4941 302.043 52.9517 304.391 52.9517C306.588 52.9517 308.503 53.4323 310.137 54.3935C311.771 55.3546 313.041 56.7277 313.947 58.5128C314.854 60.2841 315.307 62.3987 315.307 64.8565V85H306.533V66.4219C306.546 64.4858 306.052 62.9754 305.05 61.8906C304.047 60.7921 302.667 60.2429 300.91 60.2429C299.729 60.2429 298.685 60.4969 297.779 61.005C296.887 61.513 296.186 62.2545 295.678 63.2294C295.184 64.1906 294.93 65.3509 294.916 66.7102Z" fill="#303747"/>
<rect y="28" width="75" height="75" rx="4" fill="#303747"/>
<path d="M21 86V45H38.7445C41.7956 45 44.4653 45.6006 46.7537 46.8018C49.042 48.0029 50.8218 49.6912 52.0931 51.8667C53.3644 54.0422 54 56.5846 54 59.4941C54 62.4303 53.3443 64.9728 52.0328 67.1216C50.7348 69.2703 48.9081 70.9253 46.5529 72.0864C44.2111 73.2476 41.4745 73.8281 38.3431 73.8281H27.7445V65.1797H36.0949C37.4063 65.1797 38.5237 64.9528 39.4471 64.499C40.3838 64.0319 41.0998 63.3713 41.5949 62.5171C42.1034 61.6629 42.3577 60.6553 42.3577 59.4941C42.3577 58.3197 42.1034 57.3187 41.5949 56.4912C41.0998 55.6504 40.3838 55.0098 39.4471 54.5693C38.5237 54.1156 37.4063 53.8887 36.0949 53.8887H32.1606V86H21Z" fill="#F6F6F6"/>
</svg>
